<?xml version="1.0" encoding="UTF-8"?>
<svg xmlns="http://www.w3.org/2000/svg" xmlns:xlink="http://www.w3.org/1999/xlink" width="505.59pt" height="155.76pt" viewBox="0 0 505.59 155.76" version="1.1">
<defs>
<clipPath id="clip1">
  <path d="M 30 57 L 97 57 L 97 155.761719 L 30 155.761719 Z M 30 57 "/>
</clipPath>
<clipPath id="clip2">
  <path d="M 393 31 L 445 31 L 445 155.761719 L 393 155.761719 Z M 393 31 "/>
</clipPath>
<clipPath id="clip3">
  <path d="M 220 96 L 271 96 L 271 155.761719 L 220 155.761719 Z M 220 96 "/>
</clipPath>
<clipPath id="clip4">
  <path d="M 468 16 L 505.589844 16 L 505.589844 59 L 468 59 Z M 468 16 "/>
</clipPath>
</defs>
<g id="surface1">
<path style=" stroke:none;fill-rule:nonzero;fill:rgb(0%,32.199097%,61.199951%);fill-opacity:1;" d="M 0 154.734375 L 23.398438 154.734375 L 23.398438 0.902344 L 0 0.902344 Z M 0 154.734375 "/>
<path style=" stroke:none;fill-rule:nonzero;fill:rgb(0%,32.199097%,61.199951%);fill-opacity:1;" d="M 113.410156 154.734375 L 136.792969 154.734375 L 136.792969 0.902344 L 113.410156 0.902344 Z M 113.410156 154.734375 "/>
<path style=" stroke:none;fill-rule:nonzero;fill:rgb(0%,32.199097%,61.199951%);fill-opacity:1;" d="M 323.214844 154.734375 L 346.648438 154.734375 L 346.648438 59.042969 L 323.214844 59.042969 Z M 323.214844 154.734375 "/>
<path style=" stroke:none;fill-rule:nonzero;fill:rgb(0%,32.199097%,61.199951%);fill-opacity:1;" d="M 459.140625 154.734375 L 482.523438 154.734375 L 482.523438 59.042969 L 459.140625 59.042969 Z M 459.140625 154.734375 "/>
<g clip-path="url(#clip1)" clip-rule="nonzero">
<path style=" stroke:none;fill-rule:nonzero;fill:rgb(0%,32.199097%,61.199951%);fill-opacity:1;" d="M 30.367188 66.660156 C 30.367188 66.660156 58.113281 47.066406 81.890625 65.378906 C 83.644531 66.800781 90.074219 72.773438 92.601563 80.414063 C 95.761719 88.785156 98.542969 102.15625 95.304688 120.480469 C 89.410156 153.597656 66.515625 158.054688 50.289063 154.925781 C 34.128906 151.796875 30.097656 145.699219 30.097656 145.699219 C 30.097656 145.699219 43.277344 147.183594 54.949219 143.453125 C 66.707031 139.726563 69.21875 133.722656 71.160156 121.554688 C 73.089844 109.292969 72.804688 82.75 64.890625 74.734375 C 56.925781 66.660156 31.15625 67.671875 31.15625 67.671875 C 31.15625 67.671875 29.6875 67.070313 30.367188 66.660156 "/>
</g>
<path style=" stroke:none;fill-rule:nonzero;fill:rgb(0%,32.199097%,61.199951%);fill-opacity:1;" d="M 144.15625 66.25 C 144.15625 66.25 169.800781 48.617188 193.785156 63.375 C 201.683594 68.269531 204.542969 81.265625 204.71875 90.964844 L 204.828125 154.484375 L 181.335938 154.765625 L 181.160156 88.25 C 181.160156 88.25 181.335938 71.574219 166.957031 68.730469 C 152.53125 65.886719 144.316406 67.402344 144.316406 67.402344 C 144.316406 67.402344 143.554688 66.660156 144.15625 66.25 "/>
<path style=" stroke:none;fill-rule:nonzero;fill:rgb(0%,32.199097%,61.199951%);fill-opacity:1;" d="M 235.003906 66.628906 C 235.003906 66.628906 263.585938 49.484375 289.464844 63.375 C 299.089844 69.378906 301.171875 81.265625 301.332031 90.96875 L 301.488281 154.480469 L 277.964844 154.765625 L 277.804688 88.25 C 277.804688 88.25 277.617188 71.480469 260.332031 68.730469 C 244.691406 66.25 235.164063 67.8125 235.164063 67.8125 C 235.164063 67.8125 234.355469 67.070313 235.003906 66.628906 "/>
<path style=" stroke:none;fill-rule:nonzero;fill:rgb(0%,32.199097%,61.199951%);fill-opacity:1;" d="M 350.929688 79.464844 C 350.929688 79.464844 358.796875 58.570313 380.488281 57.621094 L 380.488281 79.464844 "/>
<g clip-path="url(#clip2)" clip-rule="nonzero">
<path style=" stroke:none;fill-rule:nonzero;fill:rgb(0%,32.199097%,61.199951%);fill-opacity:1;" d="M 417.398438 31.757813 L 417.398438 59.074219 L 443.671875 59.074219 L 443.671875 69.425781 L 417.128906 69.425781 L 417.128906 128.507813 C 417.128906 128.507813 416.589844 145.035156 430.875 144.023438 C 445.140625 143.011719 444.746094 144.402344 444.746094 144.402344 C 444.746094 144.402344 445.0625 145.476563 443.957031 146.488281 C 443.132813 146.804688 431.253906 159.222656 410.886719 154.292969 C 410.019531 154.070313 401.867188 151.609375 398.214844 146.078125 C 393.792969 139.378906 393.792969 129.394531 393.679688 129.074219 C 393.523438 128.476563 393.679688 43.449219 393.679688 43.449219 L 414.378906 31.757813 "/>
</g>
<g clip-path="url(#clip3)" clip-rule="nonzero">
<path style=" stroke:none;fill-rule:nonzero;fill:rgb(0%,32.199097%,61.199951%);fill-opacity:1;" d="M 249.539063 109.296875 C 250.535156 108.347656 252.699219 107.335938 252.96875 107.179688 C 256.570313 105.785156 261.882813 104.808594 269.117188 105.785156 C 269.117188 105.785156 272.417969 105.785156 270.207031 104.238281 C 268.011719 102.691406 263.144531 98.203125 250.394531 96.972656 C 237.628906 95.675781 220.941406 105.945313 220.5 121.554688 C 220.359375 127.558594 221.179688 133.691406 223.28125 139.09375 C 226.550781 147.625 233.015625 154.292969 243.648438 155.082031 C 261.027344 156.347656 270.648438 148.730469 270.648438 147.625 C 270.742188 146.550781 269.953125 146.488281 269.402344 146.613281 C 268.941406 146.738281 249.210938 149.109375 245.953125 137.925781 C 243.757813 130.625 244.121094 122.15625 245.257813 116.65625 C 245.703125 114.570313 247.503906 111.316406 249.539063 109.296875 "/>
</g>
<path style=" stroke:none;fill-rule:nonzero;fill:rgb(0%,58.399963%,83.499146%);fill-opacity:1;" d="M 458.980469 0 L 482.730469 0 L 459.21875 26.765625 "/>
<g clip-path="url(#clip4)" clip-rule="nonzero">
<path style=" stroke:none;fill-rule:nonzero;fill:rgb(98.799133%,72.898865%,18.399048%);fill-opacity:1;" d="M 505.59375 16.433594 L 505.59375 58.207031 L 468.9375 16.335938 "/>
</g>
</g>
</svg>
